<svg width="134" height="133" viewBox="0 0 134 133" fill="none" xmlns="http://www.w3.org/2000/svg">
<path d="M0 66.6575C0.00775694 99.4534 23.856 127.378 56.2467 132.518V85.9242H39.3333V66.6575H56.2667V51.9908C55.5097 45.0411 57.8835 38.1148 62.7443 33.0904C67.6051 28.066 74.449 25.4643 81.42 25.9908C86.4236 26.0716 91.4146 26.5173 96.3533 27.3242V43.7175H87.9267C85.0256 43.3375 82.109 44.2957 79.9985 46.322C77.8879 48.3483 76.8118 51.2234 77.0733 54.1375V66.6575H95.5467L92.5933 85.9308H77.0733V132.518C112.103 126.981 136.667 94.9894 132.97 59.718C129.273 24.4466 98.6086 -1.7563 63.1922 0.0920318C27.7757 1.94036 0.00562984 31.1929 0 66.6575Z" fill="#F0F0F0"/>
</svg>
