<svg width="134" height="130" viewBox="0 0 134 130" fill="none" xmlns="http://www.w3.org/2000/svg">
<path d="M66.5146 1.7661e-06C33.8941 -0.00418832 6.08668 23.6532 0.863913 55.8529C-4.35886 88.0525 14.5452 119.287 45.4946 129.593C48.8279 130.193 50.0212 128.147 50.0212 126.387C50.0212 124.807 49.9679 120.62 49.9479 115.053C31.4479 119.053 27.5412 106.133 27.5412 106.133C26.3234 102.113 23.7051 98.6622 20.1612 96.4067C14.1613 92.28 20.6212 92.3733 20.6212 92.3733C24.8924 92.959 28.6516 95.4897 30.8013 99.2267C32.6208 102.535 35.6863 104.98 39.3166 106.017C42.9469 107.055 46.8414 106.6 50.1346 104.753C50.4441 101.38 51.9448 98.2272 54.3679 95.86C39.6079 94.1867 24.0879 88.48 24.0879 62.9933C24.006 56.4013 26.4539 50.0286 30.9279 45.1867C28.9036 39.4487 29.142 33.155 31.5946 27.5867C31.5946 27.5867 37.1746 25.7933 49.8746 34.3933C60.7669 31.4067 72.2623 31.4067 83.1546 34.3933C95.8612 25.7867 101.435 27.5867 101.435 27.5867C103.899 33.1524 104.137 39.4505 102.101 45.1867C106.592 50.0282 109.038 56.4176 108.928 63.02C108.928 88.5733 93.3946 94.1867 78.5812 95.8333C81.7767 99.1004 83.4155 103.582 83.0812 108.14C83.0812 117.033 83.0012 124.207 83.0012 126.387C83.0012 128.167 84.1879 130.233 87.5812 129.58C118.518 119.256 137.402 88.0199 132.168 55.8288C126.935 23.6377 99.1283 -0.00746115 66.5146 1.7661e-06Z" fill="#F0F0F0"/>
</svg>
