<svg width="121" height="121" viewBox="0 0 121 121" fill="none" xmlns="http://www.w3.org/2000/svg">
<path d="M60 120.24C43.6 120.24 41.6667 120.153 35.2667 119.873C30.2758 119.709 25.3496 118.695 20.7 116.873C12.6554 113.743 6.29427 107.379 3.16667 99.3333C1.41537 94.6669 0.470786 89.7366 0.373333 84.7533C0 78.3667 0 76.2733 0 60C0 43.5533 0.0866667 41.6333 0.373333 35.2667C0.472918 30.2901 1.41747 25.3667 3.16667 20.7067C6.29087 12.6502 12.6623 6.28115 20.72 3.16C25.3776 1.40135 30.3023 0.454295 35.28 0.36C41.6467 0 43.74 0 60 0C76.5333 0 78.4333 0.0866667 84.7333 0.36C89.7239 0.455111 94.6616 1.40206 99.3333 3.16C107.389 6.28469 113.759 12.6525 116.887 20.7067C118.667 25.4346 119.617 30.435 119.693 35.4867C120.067 41.8733 120.067 43.96 120.067 60.2267C120.067 76.4933 119.973 78.6267 119.693 84.94C119.594 89.928 118.647 94.8628 116.893 99.5333C113.758 107.585 107.387 113.951 99.3333 117.08C94.6683 118.828 89.7407 119.772 84.76 119.873C78.3933 120.24 76.3067 120.24 60 120.24ZM59.7733 10.5533C43.4667 10.5533 41.7733 10.6333 35.4067 10.92C31.6066 10.9703 27.8432 11.6716 24.28 12.9933C19.0184 15.0067 14.8548 19.1533 12.82 24.4067C11.4881 28.0087 10.7867 31.8132 10.7467 35.6533C10.3933 42.1133 10.3933 43.8067 10.3933 60C10.3933 76 10.4533 77.94 10.7467 84.36C10.8063 88.1613 11.5073 91.9253 12.82 95.4933C14.8578 100.743 19.0206 104.887 24.28 106.9C27.8408 108.231 31.6057 108.932 35.4067 108.973C41.86 109.347 43.56 109.347 59.7733 109.347C76.1267 109.347 77.82 109.267 84.1333 108.973C87.936 108.927 91.7022 108.226 95.2667 106.9C100.496 104.869 104.633 100.735 106.667 95.5067C107.996 91.9017 108.697 88.0954 108.74 84.2533H108.813C109.1 77.88 109.1 76.18 109.1 59.8933C109.1 43.6067 109.027 41.8933 108.74 35.5267C108.68 31.7297 107.979 27.9701 106.667 24.4067C104.637 19.1705 100.5 15.0286 95.2667 12.9933C91.703 11.6649 87.9363 10.9635 84.1333 10.92C77.6867 10.5533 76 10.5533 59.7733 10.5533ZM60 90.7933C47.5333 90.8014 36.2895 83.2982 31.5124 71.783C26.7354 60.2679 29.366 47.0089 38.1775 38.1897C46.989 29.3706 60.2457 26.7285 71.7651 31.4955C83.2844 36.2626 90.7973 47.4999 90.8 59.9667C90.7817 76.9738 77.0071 90.7603 60 90.7933ZM60 39.9533C48.9543 39.9533 40 48.9076 40 59.9533C40 70.999 48.9543 79.9533 60 79.9533C71.0457 79.9533 80 70.999 80 59.9533C79.9743 48.9183 71.035 39.979 60 39.9533ZM92 35.2C88.0361 35.1853 84.8327 31.9639 84.84 28.0001C84.8474 24.0362 88.0628 20.8267 92.0266 20.8267C95.9905 20.8267 99.2059 24.0361 99.2133 28C99.2151 29.9124 98.4553 31.7468 97.1017 33.0979C95.7482 34.4489 93.9124 35.2053 92 35.2Z" fill="#F0F0F0"/>
</svg>
