<svg width="140" height="114" viewBox="0 0 140 114" fill="none" xmlns="http://www.w3.org/2000/svg">
<path d="M123.027 17.8613C129.003 14.2886 133.475 8.66291 135.607 2.03466C129.991 5.36668 123.847 7.71384 117.44 8.97466C108.557 -0.42182 94.4834 -2.7085 83.0827 3.39237C71.6819 9.49324 65.7767 22.4713 68.6667 35.0747C45.6641 33.9198 24.2331 23.0541 9.70667 5.18133C2.1256 18.2575 5.99968 34.9732 18.56 43.3813C14.0181 43.2353 9.57685 42.0056 5.60667 39.7947C5.60667 39.9147 5.60667 40.0347 5.60667 40.1547C5.60929 53.7757 15.2091 65.5085 28.56 68.208C24.3471 69.3542 19.928 69.5229 15.64 68.7013C19.3947 80.3498 30.1303 88.3299 42.3667 88.568C32.2322 96.5222 19.7165 100.836 6.83333 100.815C4.5498 100.818 2.26807 100.687 0 100.421C13.0826 108.828 28.3091 113.29 43.86 113.275C65.495 113.423 86.2869 104.894 101.585 89.5948C116.883 74.2956 125.41 53.503 125.26 31.868C125.26 30.628 125.231 29.3947 125.173 28.168C130.776 24.1187 135.612 19.1023 139.453 13.3547C134.233 15.6684 128.696 17.1875 123.027 17.8613Z" fill="#F0F0F0"/>
</svg>
